<svg width="399" height="135" viewBox="0 0 399 135" fill="none" xmlns="http://www.w3.org/2000/svg">
<path d="M92.2739 2.99268H68.8674V52.8594C66.3658 48.2456 59.2187 42.0342 44.0312 42.0342C19.195 42.0342 1.86328 62.0876 1.86328 87.6419C1.86328 114.084 19.731 133.604 44.7458 133.604C56.5385 133.604 65.4723 128.281 69.4033 121.36C69.4033 125.441 69.9392 129.701 70.2968 131.475H92.9887C92.6314 127.926 92.2739 121.537 92.2739 115.681V2.99268ZM25.806 87.6419C25.806 72.0254 35.4546 63.1523 47.6046 63.1523C59.7546 63.1523 69.2247 71.8478 69.2247 87.4644C69.2247 103.259 59.7546 112.487 47.6046 112.487C35.0973 112.487 25.806 103.259 25.806 87.6419Z" fill="#F3F5F8"/>
<path d="M153.966 112.664C142.352 112.664 131.631 104.146 131.631 87.8196C131.631 71.3156 142.352 62.9748 153.966 62.9748C165.58 62.9748 176.301 71.3156 176.301 87.8196C176.301 104.324 165.58 112.664 153.966 112.664ZM153.966 41.502C127.7 41.502 107.867 60.8454 107.867 87.8196C107.867 114.616 127.7 134.137 153.966 134.137C180.231 134.137 200.065 114.616 200.065 87.8196C200.065 60.8454 180.231 41.502 153.966 41.502Z" fill="#F3F5F8"/>
<path d="M239.017 131.475V80.3659C239.017 70.783 245.092 63.1521 255.455 63.1521C266.174 63.1521 270.998 70.2506 270.998 79.656V131.475H294.585V80.3659C294.585 70.9605 300.66 63.1521 310.844 63.1521C321.743 63.1521 326.389 70.2506 326.389 79.656V131.475H349.438V74.8645C349.438 51.4395 333.893 41.6792 317.634 41.6792C306.02 41.6792 296.729 45.5834 289.761 56.2311C285.293 46.8256 275.645 41.6792 263.672 41.6792C254.024 41.6792 242.768 46.2933 237.944 54.8113V44.1637H215.252V131.475H239.017Z" fill="#F3F5F8"/>
<path d="M393.706 131.475V44.1637H369.941V131.475H393.706ZM367.084 15.5924C367.084 23.4007 373.694 29.9667 381.734 29.9667C389.953 29.9667 396.386 23.4007 396.386 15.5924C396.386 7.42913 389.953 0.863037 381.734 0.863037C373.694 0.863037 367.084 7.42913 367.084 15.5924Z" fill="#F3F5F8"/>
<path fill-rule="evenodd" clip-rule="evenodd" d="M185.234 31.4048H118.555V14.7456H185.234V31.4048Z" fill="#F3F5F8"/>
</svg>
