<svg width="702" height="886" viewBox="0 0 702 886" fill="none" xmlns="http://www.w3.org/2000/svg">
<g clip-path="url(#clip0_631_31543)">
<rect width="702" height="885" transform="translate(0 0.635254)" fill="#000003"/>
<g clip-path="url(#clip1_631_31543)">
<path d="M824.303 -94.8626H-169.384V898.884H824.303V-94.8626Z" fill="#000003"/>
<mask id="mask0_631_31543" style="mask-type:luminance" maskUnits="userSpaceOnUse" x="-170" y="-95" width="995" height="995">
<path d="M824.521 -94.8626H-169.384V899.042H824.521V-94.8626Z" fill="white"/>
</mask>
<g mask="url(#mask0_631_31543)">
<path d="M655.42 809.471L712.04 797.368L724.123 928.277H674.3L655.42 809.471Z" stroke="#D3D3D7" stroke-width="1.98737" stroke-miterlimit="10" stroke-linejoin="round"/>
<path d="M538.361 831.293L546.927 879.049L651.582 848.682L640.095 823.323L628.886 810.644L538.361 831.293Z" stroke="#D3D3D7" stroke-width="1.98737" stroke-miterlimit="10" stroke-linejoin="round"/>
<path d="M547.506 885.528L655.42 862.832L666.033 935.371L554.581 947.455L547.506 885.528Z" stroke="#D3D3D7" stroke-width="1.98737" stroke-miterlimit="10" stroke-linejoin="round"/>
<path d="M424.165 839.242L474.287 894.074L535.418 880.321L528.144 839.242C528.144 839.242 493.286 844.708 481.56 844.847C467.152 845.006 424.165 839.242 424.165 839.242Z" stroke="#D3D3D7" stroke-width="1.98737" stroke-miterlimit="10" stroke-linejoin="round"/>
<path d="M437.739 870.881L417.487 896.439H466.039L437.739 870.881Z" stroke="#D3D3D7" stroke-width="1.98737" stroke-miterlimit="10" stroke-linejoin="round"/>
<path d="M401.568 834.93L340.437 890.358L408.047 896.439L433.783 865.674L401.568 834.93Z" stroke="#D3D3D7" stroke-width="1.98737" stroke-miterlimit="10" stroke-linejoin="round"/>
<path d="M46.5634 879.347H9.2207V891.133H46.5634V879.347Z" stroke="#D3D3D7" stroke-width="1.98737" stroke-miterlimit="10" stroke-linejoin="round"/>
<path d="M66.0441 865.396H51.6953V891.153H66.0441V865.396Z" stroke="#D3D3D7" stroke-width="1.98737" stroke-miterlimit="10" stroke-linejoin="round"/>
<path d="M46.5831 861.262V872.471H9.22051L3.33789 819.587L46.5831 861.262Z" stroke="#D3D3D7" stroke-width="1.98737" stroke-miterlimit="10" stroke-linejoin="round"/>
<path d="M9.2207 811.717L51.6909 860.07H61.3098L55.4271 810.942L9.2207 811.717Z" stroke="#D3D3D7" stroke-width="1.98737" stroke-miterlimit="10" stroke-linejoin="round"/>
<path d="M53.458 768.492V804.066L4.90647 806.411L2.34277 771.036L53.458 768.492Z" stroke="#D3D3D7" stroke-width="1.98737" stroke-miterlimit="10" stroke-linejoin="round"/>
<path d="M47.9367 735.978L52.468 758.257H7.45396L0.378906 737.429L47.9367 735.978Z" stroke="#D3D3D7" stroke-width="1.98737" stroke-miterlimit="10" stroke-linejoin="round"/>
<path d="M-6.8916 634.324L41.5605 614.57L46.5886 726.916H-0.889743L-6.8916 634.324Z" stroke="#D3D3D7" stroke-width="1.98737" stroke-miterlimit="10" stroke-linejoin="round"/>
<path d="M-15.7588 595.233L-9.73705 627.547L61.9077 598.055L54.2563 563.872L-15.7588 595.233Z" stroke="#D3D3D7" stroke-width="1.98737" stroke-miterlimit="10" stroke-linejoin="round"/>
<path d="M46.5869 633.649H69.1834L95.516 870.703L129.043 872.332L128.566 891.133H72.7209L46.5869 633.649Z" stroke="#D3D3D7" stroke-width="1.98737" stroke-miterlimit="10" stroke-linejoin="round"/>
<path d="M96.5645 813.784L129.575 811.439L128.044 863.151L101.235 862.992L96.5645 813.784Z" stroke="#D3D3D7" stroke-width="1.98737" stroke-miterlimit="10" stroke-linejoin="round"/>
<path d="M87.2666 700.365L131.704 697.542L129.796 804.185L95.5142 806.411L87.2666 700.365Z" stroke="#D3D3D7" stroke-width="1.98737" stroke-miterlimit="10" stroke-linejoin="round"/>
<path d="M62.3857 559.818L128.525 529.769L132.182 688.262L85.2008 691.521L62.3857 559.818Z" stroke="#D3D3D7" stroke-width="1.98737" stroke-miterlimit="10" stroke-linejoin="round"/>
<path d="M150.086 774.971H156.247V798.859L218.174 885.23L149.609 891.053L150.086 774.971Z" stroke="#D3D3D7" stroke-width="1.98737" stroke-miterlimit="10" stroke-linejoin="round"/>
<path d="M164.81 778.508L214.335 772.486L257.68 835.506L218.171 868.139L164.81 800.906V778.508Z" stroke="#D3D3D7" stroke-width="1.98737" stroke-miterlimit="10" stroke-linejoin="round"/>
<path d="M222.585 874.339L270.66 849.855L326.385 891.133L232.323 890.358L222.585 874.339Z" stroke="#D3D3D7" stroke-width="1.98737" stroke-miterlimit="10" stroke-linejoin="round"/>
<path d="M300.133 861.362H323.127L351.725 870.504L332.865 888.191L300.133 861.362Z" stroke="#D3D3D7" stroke-width="1.98737" stroke-miterlimit="10" stroke-linejoin="round"/>
<path d="M318.119 849.855L385.65 823.323L398.031 830.399L358.065 866.668L318.119 849.855Z" stroke="#D3D3D7" stroke-width="1.98737" stroke-miterlimit="10" stroke-linejoin="round"/>
<path d="M381.522 818.315L292.09 848.384L350.479 800.886L381.522 818.315Z" stroke="#D3D3D7" stroke-width="1.98737" stroke-miterlimit="10" stroke-linejoin="round"/>
<path d="M273.301 838.308L283.039 848.384L343.574 797.428L328.073 787.014L273.301 838.308Z" stroke="#D3D3D7" stroke-width="1.98737" stroke-miterlimit="10" stroke-linejoin="round"/>
<path d="M318.119 780.873L262.989 827.159L160.978 669.421L318.119 780.873Z" stroke="#D3D3D7" stroke-width="1.98737" stroke-miterlimit="10" stroke-linejoin="round"/>
<path d="M151.539 673.833V768.492L208.875 763.623L151.539 673.833Z" stroke="#D3D3D7" stroke-width="1.98737" stroke-miterlimit="10" stroke-linejoin="round"/>
<path d="M148.596 642.592L236.04 633.847L240.869 691.521L236.159 712.468L148.596 657.04V642.592Z" stroke="#D3D3D7" stroke-width="1.98737" stroke-miterlimit="10" stroke-linejoin="round"/>
<path d="M257.683 722.882L386.226 811.34V768.492L358.065 760.423L385.053 721.153L257.683 722.882Z" stroke="#D3D3D7" stroke-width="1.98737" stroke-miterlimit="10" stroke-linejoin="round"/>
<path d="M398.81 721.153H471.925L517.933 755.316V770.261L368.145 757.859L398.81 721.153Z" stroke="#D3D3D7" stroke-width="1.98737" stroke-miterlimit="10" stroke-linejoin="round"/>
<path d="M394.096 772.606V805.934H489.629L517.929 777.535L394.096 772.606Z" stroke="#D3D3D7" stroke-width="1.98737" stroke-miterlimit="10" stroke-linejoin="round"/>
<path d="M435.578 813.884V832.764L396.745 821.754V815.851L435.578 813.884Z" stroke="#D3D3D7" stroke-width="1.98737" stroke-miterlimit="10" stroke-linejoin="round"/>
<path d="M487.865 812.512V832.764L444.023 831.77V811.34L487.865 812.512Z" stroke="#D3D3D7" stroke-width="1.98737" stroke-miterlimit="10" stroke-linejoin="round"/>
<path d="M520.295 787.551L495.313 810.644V829.604H525.402L520.295 787.551Z" stroke="#D3D3D7" stroke-width="1.98737" stroke-miterlimit="10" stroke-linejoin="round"/>
<path d="M525.4 745.697L634.189 740.768V799.733L538.358 818.017L525.4 745.697Z" stroke="#D3D3D7" stroke-width="1.98737" stroke-miterlimit="10" stroke-linejoin="round"/>
<path d="M515.068 714.535L634.192 723.677L533.054 733.395L515.068 714.535Z" stroke="#D3D3D7" stroke-width="1.98737" stroke-miterlimit="10" stroke-linejoin="round"/>
<path d="M646.275 718.072H710.567L707.029 779.383L651.582 794.427L646.275 718.072Z" stroke="#D3D3D7" stroke-width="1.98737" stroke-miterlimit="10" stroke-linejoin="round"/>
<path d="M641.564 600.122L715.872 587.442L718.217 705.969H649.534L641.564 600.122Z" stroke="#D3D3D7" stroke-width="1.98737" stroke-miterlimit="10" stroke-linejoin="round"/>
<path d="M500.639 608.687L570.515 606.322V699.192H526.872L500.639 608.687Z" stroke="#D3D3D7" stroke-width="1.98737" stroke-miterlimit="10" stroke-linejoin="round"/>
<path d="M579.799 604.852L630.358 601.612L634.193 705.969L574.632 704.2L579.799 604.852Z" stroke="#D3D3D7" stroke-width="1.98737" stroke-miterlimit="10" stroke-linejoin="round"/>
<path d="M377.879 671.409L495.313 667.355L500.639 699.192H376.646L377.879 671.409Z" stroke="#D3D3D7" stroke-width="1.98737" stroke-miterlimit="10" stroke-linejoin="round"/>
<path d="M376.39 634.841L377.642 658.312L486.192 653.781L481.76 631.979L376.39 634.841Z" stroke="#D3D3D7" stroke-width="1.98737" stroke-miterlimit="10" stroke-linejoin="round"/>
<path d="M247.373 633.649H363.575L360.872 699.192H252.679L247.373 633.649Z" stroke="#D3D3D7" stroke-width="1.98737" stroke-miterlimit="10" stroke-linejoin="round"/>
<path d="M176.897 599.545L174.234 626.673L361.465 624.308L357.629 599.545H176.897Z" stroke="#D3D3D7" stroke-width="1.98737" stroke-miterlimit="10" stroke-linejoin="round"/>
<path d="M371.202 595.113L375.316 626.673L456.997 623.135L371.202 595.113Z" stroke="#D3D3D7" stroke-width="1.98737" stroke-miterlimit="10" stroke-linejoin="round"/>
<path d="M145.841 526.708C145.841 526.708 229.33 508.066 257.69 505.88C280.962 504.072 351.057 508.623 351.057 508.623L353.422 590.006H168.656L165.118 618.306L148.603 624.984L145.841 526.708Z" stroke="#D3D3D7" stroke-width="1.98737" stroke-miterlimit="10" stroke-linejoin="round"/>
<path d="M361.47 502.74L465.847 495.268L474.094 542.826L380.052 546.363L382.496 587.442H368.147L361.47 502.74Z" stroke="#D3D3D7" stroke-width="1.98737" stroke-miterlimit="10" stroke-linejoin="round"/>
<path d="M388.392 550.298H417.785L419.852 590.403L391.532 584.103L388.392 550.298Z" stroke="#D3D3D7" stroke-width="1.98737" stroke-miterlimit="10" stroke-linejoin="round"/>
<path d="M427.309 550.298H474.091L486.194 624.983L427.309 603.381V550.298Z" stroke="#D3D3D7" stroke-width="1.98737" stroke-miterlimit="10" stroke-linejoin="round"/>
<path d="M95.123 408.777L69.9629 411.917L82.543 358.457L95.123 408.777Z" stroke="#D3D3D7" stroke-width="1.98737" stroke-miterlimit="10" stroke-linejoin="round"/>
<path d="M95.1201 416.647L97.0876 433.937L82.5401 435.905V458.7L61.9111 456.335L69.96 420.96L95.1201 416.647Z" stroke="#D3D3D7" stroke-width="1.98737" stroke-miterlimit="10" stroke-linejoin="round"/>
<path d="M87.2666 441.012V455.163L103.782 453.195L97.0842 441.012H87.2666Z" stroke="#D3D3D7" stroke-width="1.98737" stroke-miterlimit="10" stroke-linejoin="round"/>
<path d="M61.9096 464.205L107.321 458.7L123.439 508.245L64.6323 535.731L46.5869 520.428L61.9096 464.205Z" stroke="#D3D3D7" stroke-width="1.98737" stroke-miterlimit="10" stroke-linejoin="round"/>
<path d="M-24.7783 541.355L-19.4919 573.809L54.6967 539.964L45.3958 531.716L1.9121 533.783L-24.7783 541.355Z" stroke="#D3D3D7" stroke-width="1.98737" stroke-miterlimit="10" stroke-linejoin="round"/>
<path d="M-108.951 445.723L-99.8689 456.733H-40.1086L-31.066 534.777L6.07798 526.708L31.8343 526.907L61.9033 426.068L-108.951 445.723Z" stroke="#D3D3D7" stroke-width="1.98737" stroke-miterlimit="10" stroke-linejoin="round"/>
<path d="M9.02117 354.124V378.907L-14.1715 381.65L-17.709 360.226L9.02117 354.124Z" stroke="#D3D3D7" stroke-width="1.98737" stroke-miterlimit="10" stroke-linejoin="round"/>
<path d="M-12.3975 384.412L14.3327 382.822V352.356L74.093 340.571L75.2854 362.193L59.9429 414.68L-8.85994 422.152L-12.3975 384.412Z" stroke="#D3D3D7" stroke-width="1.98737" stroke-miterlimit="10" stroke-linejoin="round"/>
<path d="M-63.6921 210.537L98.4576 224.389L69.9587 330.057L-14.445 355.416L-101.73 367.301L-63.6921 210.537Z" stroke="#D3D3D7" stroke-width="1.98737" stroke-miterlimit="10" stroke-linejoin="round"/>
<path d="M-68.2637 186.211L37.7428 199.229L18.5647 145.192L-68.2637 186.211Z" stroke="#D3D3D7" stroke-width="1.98737" stroke-miterlimit="10" stroke-linejoin="round"/>
<path d="M38.3193 172.021H86.9702L78.504 205.032L51.7341 201.216L38.3193 172.021Z" stroke="#D3D3D7" stroke-width="1.98737" stroke-miterlimit="10" stroke-linejoin="round"/>
<path d="M90.5053 172.021H113.499L98.7131 207.894L83.5693 205.747L90.5053 172.021Z" stroke="#D3D3D7" stroke-width="1.98737" stroke-miterlimit="10" stroke-linejoin="round"/>
<path d="M56.0111 116.892L23.5771 135.752L33.6134 160.216L106.133 166.715L113.506 125.437L56.0111 116.892Z" stroke="#D3D3D7" stroke-width="1.98737" stroke-miterlimit="10" stroke-linejoin="round"/>
<path d="M44.8037 79.728L121.775 89.4661L113.507 115.401L54.5418 108.326L44.8037 79.728Z" stroke="#D3D3D7" stroke-width="1.98737" stroke-miterlimit="10" stroke-linejoin="round"/>
<path d="M50.4026 32.2696L38.3193 71.7785H117.039L121.769 51.1297L50.4026 32.2696Z" stroke="#D3D3D7" stroke-width="1.98737" stroke-miterlimit="10" stroke-linejoin="round"/>
<path d="M68.5479 -19.9188L131.19 -14.6125L117.04 43.4784L56.3057 26.3671L68.5479 -19.9188Z" stroke="#D3D3D7" stroke-width="1.98737" stroke-miterlimit="10" stroke-linejoin="round"/>
<path d="M49.1299 111.586L-200.902 238.559L-233.137 166.715L-154.496 101.748L29.0773 71.7784L49.1299 111.586Z" stroke="#D3D3D7" stroke-width="1.98737" stroke-miterlimit="10" stroke-linejoin="round"/>
<path d="M139.934 -14.6127L137.191 41.2126L214.639 -4.7951V-18.5477L139.934 -14.6127Z" stroke="#D3D3D7" stroke-width="1.98737" stroke-miterlimit="10" stroke-linejoin="round"/>
<path d="M489.831 -116.823L384.063 -108.576L343.978 -48.4179L401.77 11.3226L443.823 -0.462533L448.931 11.7797L500.821 4.24753L489.831 -116.823Z" stroke="#D3D3D7" stroke-width="1.98737" stroke-miterlimit="10" stroke-linejoin="round"/>
<path d="M341.713 -41.4421L331.657 -29.7762L394.498 35.3699L426.475 27.1024V16.1917L434.285 9.11669L394.776 16.0526L341.713 -41.4421Z" stroke="#D3D3D7" stroke-width="1.98737" stroke-miterlimit="10" stroke-linejoin="round"/>
<path d="M405.307 51.0303L500.82 30.9777L516.56 95.0704L471.745 107.253L405.307 51.0303Z" stroke="#D3D3D7" stroke-width="1.98737" stroke-miterlimit="10" stroke-linejoin="round"/>
<path d="M598.719 6.61249L612.472 73.0504L526.776 92.308L511.831 25.8701L598.719 6.61249Z" stroke="#D3D3D7" stroke-width="1.98737" stroke-miterlimit="10" stroke-linejoin="round"/>
<path d="M481.566 116.296L590.852 88.373L605.062 140.561L583.519 197.937L481.566 116.296Z" stroke="#D3D3D7" stroke-width="1.98737" stroke-miterlimit="10" stroke-linejoin="round"/>
<path d="M598.717 88.3731L617.199 81.4968L619.922 99.721L608.018 130.148L598.717 88.3731Z" stroke="#D3D3D7" stroke-width="1.98737" stroke-miterlimit="10" stroke-linejoin="round"/>
<path d="M606.567 3.47253L666.586 -7.935L625.249 81.4968L606.567 3.47253Z" stroke="#D3D3D7" stroke-width="1.98737" stroke-miterlimit="10" stroke-linejoin="round"/>
<path d="M555.47 -39.0772L557.537 -11.9694L566.678 -13.7382L569.322 1.90243L643.033 -12.5458L633.891 -52.5317L555.47 -39.0772Z" stroke="#D3D3D7" stroke-width="1.98737" stroke-miterlimit="10" stroke-linejoin="round"/>
<path d="M699.296 -36.7519L718.236 -26.656L653.944 121.145L634.011 111.864L699.296 -36.7519Z" stroke="#D3D3D7" stroke-width="1.98737" stroke-miterlimit="10" stroke-linejoin="round"/>
<path d="M630.238 121.701L649.853 130.565L640.015 153.181L621.155 145.391L630.238 121.701Z" stroke="#D3D3D7" stroke-width="1.98737" stroke-miterlimit="10" stroke-linejoin="round"/>
<path d="M618.572 149.902L637.631 158.666L613.842 213.299L600.885 204.157L618.572 149.902Z" stroke="#D3D3D7" stroke-width="1.98737" stroke-miterlimit="10" stroke-linejoin="round"/>
<path d="M709.73 10.5872L697.886 36.4826L734.811 56.3762L749.816 32.2893L709.73 10.5872Z" stroke="#D3D3D7" stroke-width="1.98737" stroke-miterlimit="10" stroke-linejoin="round"/>
<path d="M696.024 40.3381L674.302 88.3729L687.856 94.4741L708.206 70.3077L725.596 71.1821L732.432 60.192L696.024 40.3381Z" stroke="#D3D3D7" stroke-width="1.98737" stroke-miterlimit="10" stroke-linejoin="round"/>
<path d="M671.058 94.4745L655.716 145.788L686.977 104.014L671.058 94.4745Z" stroke="#D3D3D7" stroke-width="1.98737" stroke-miterlimit="10" stroke-linejoin="round"/>
<path d="M646.774 157.295L674.756 170.213L636.499 232.994L623.919 221.726L646.774 157.295Z" stroke="#D3D3D7" stroke-width="1.98737" stroke-miterlimit="10" stroke-linejoin="round"/>
<path d="M826.133 -73.2798L881.859 -37.3084L734.734 186.172L669.667 141.058L714.383 75.3161L727.062 81.4968L826.133 -73.2798Z" stroke="#D3D3D7" stroke-width="1.98737" stroke-miterlimit="10" stroke-linejoin="round"/>
<path d="M131.188 69.1154C131.188 69.1154 145.279 51.4676 151.34 47.0954C211.876 3.45264 307.111 -15.6063 307.111 -15.6063L283.839 58.9004L265.356 66.3729L131.188 69.1154Z" stroke="#D3D3D7" stroke-width="1.98737" stroke-miterlimit="10" stroke-linejoin="round"/>
<path d="M216.11 81.7949L257.984 73.5473L271.836 97.5746L267.126 122.774L217.343 113.931L216.11 81.7949Z" stroke="#D3D3D7" stroke-width="1.98737" stroke-miterlimit="10" stroke-linejoin="round"/>
<path d="M209.331 79.728V113.056L175.903 107.253L156.248 73.5473L209.331 79.728Z" stroke="#D3D3D7" stroke-width="1.98737" stroke-miterlimit="10" stroke-linejoin="round"/>
<path d="M131.184 73.5473H143.863L166.579 113.056L159.206 140.462L121.764 136.05L131.184 73.5473Z" stroke="#D3D3D7" stroke-width="1.98737" stroke-miterlimit="10" stroke-linejoin="round"/>
<path d="M172.763 113.056L209.33 119.833L199.016 176.732L117.633 168.782L120.276 145.192L166.582 150.498L172.763 113.056Z" stroke="#D3D3D7" stroke-width="1.98737" stroke-miterlimit="10" stroke-linejoin="round"/>
<path d="M214.638 121.304L209.332 176.732H251.484L265.634 130.148L214.638 121.304Z" stroke="#D3D3D7" stroke-width="1.98737" stroke-miterlimit="10" stroke-linejoin="round"/>
<path d="M303.469 93.3017L282.443 107.253L273.301 122.774L324.893 131.618V122.774L303.469 93.3017Z" stroke="#D3D3D7" stroke-width="1.98737" stroke-miterlimit="10" stroke-linejoin="round"/>
<path d="M313.745 -8.65051L297.488 60.5697L303.828 69.1154L347.61 58.2047L355.281 69.1154L307.803 73.5472L338.17 133.387L395.267 123.927L385.549 66.492L313.745 -8.65051Z" stroke="#D3D3D7" stroke-width="1.98737" stroke-miterlimit="10" stroke-linejoin="round"/>
<path d="M311.34 141.794L396.26 130.148L410.112 185.874L306.908 182.336L311.34 141.794Z" stroke="#D3D3D7" stroke-width="1.98737" stroke-miterlimit="10" stroke-linejoin="round"/>
<path d="M303.473 138.991L271.834 130.148L262.394 176.732L299.1 182.932L303.473 138.991Z" stroke="#D3D3D7" stroke-width="1.98737" stroke-miterlimit="10" stroke-linejoin="round"/>
<path d="M117.636 182.932H170.997L163.306 217.055L115.708 210.298L117.636 182.932Z" stroke="#D3D3D7" stroke-width="1.98737" stroke-miterlimit="10" stroke-linejoin="round"/>
<path d="M177.492 185.874L199.89 187.205L192.815 221.249L169.463 217.95L177.492 185.874Z" stroke="#D3D3D7" stroke-width="1.98737" stroke-miterlimit="10" stroke-linejoin="round"/>
<path d="M205.497 189.272H247.371L243.973 221.249H205.497V189.272Z" stroke="#D3D3D7" stroke-width="1.98737" stroke-miterlimit="10" stroke-linejoin="round"/>
<path d="M262.392 187.205L254.442 221.249H294.528L299.099 194.141L262.392 187.205Z" stroke="#D3D3D7" stroke-width="1.98737" stroke-miterlimit="10" stroke-linejoin="round"/>
<path d="M306.914 195.314L303.476 221.249H340.838L348.49 195.314H306.914Z" stroke="#D3D3D7" stroke-width="1.98737" stroke-miterlimit="10" stroke-linejoin="round"/>
<path d="M354.692 195.314H410.12L415.128 221.249H350.856L354.692 195.314Z" stroke="#D3D3D7" stroke-width="1.98737" stroke-miterlimit="10" stroke-linejoin="round"/>
<path d="M441.754 113.792L395.826 75.813L406.677 139.091L441.754 113.792Z" stroke="#D3D3D7" stroke-width="1.98737" stroke-miterlimit="10" stroke-linejoin="round"/>
<path d="M452.787 122.894L415.126 152.068L449.13 195.314L501.656 163.297L452.787 122.894Z" stroke="#D3D3D7" stroke-width="1.98737" stroke-miterlimit="10" stroke-linejoin="round"/>
<path d="M508.371 168.842L527.649 184.78L489.432 221.249H467.014L455.428 204.555L508.371 168.842Z" stroke="#D3D3D7" stroke-width="1.98737" stroke-miterlimit="10" stroke-linejoin="round"/>
<path d="M416.656 170.67L424.228 221.249L456.404 221.03L416.656 170.67Z" stroke="#D3D3D7" stroke-width="1.98737" stroke-miterlimit="10" stroke-linejoin="round"/>
<path d="M537.41 192.869L504.678 222.859L550.546 227.688L569.923 219.738L537.41 192.869Z" stroke="#D3D3D7" stroke-width="1.98737" stroke-miterlimit="10" stroke-linejoin="round"/>
<path d="M563.683 242.732L590.274 229.576L607.763 232.656L606.57 271.192L565.114 280.353L563.683 242.732Z" stroke="#D3D3D7" stroke-width="1.98737" stroke-miterlimit="10" stroke-linejoin="round"/>
<path d="M553.864 247.224L503.901 247.144L507.32 275.703L556.269 274.53L553.864 247.224Z" stroke="#D3D3D7" stroke-width="1.98737" stroke-miterlimit="10" stroke-linejoin="round"/>
<path d="M607.759 275.703L596.153 282.201L563.918 286.315L583.573 323.082L609.727 309.707L607.759 275.703Z" stroke="#D3D3D7" stroke-width="1.98737" stroke-miterlimit="10" stroke-linejoin="round"/>
<path d="M586.81 332.323L609.724 319.743L606.186 368.871L586.81 332.323Z" stroke="#D3D3D7" stroke-width="1.98737" stroke-miterlimit="10" stroke-linejoin="round"/>
<path d="M577.692 334.867L537.785 359.431V377.317L599.314 371.435L577.692 334.867Z" stroke="#D3D3D7" stroke-width="1.98737" stroke-miterlimit="10" stroke-linejoin="round"/>
<path d="M511.633 282.977H553.705L574.931 327.017L535.422 348.818L534.547 334.867L511.633 282.977Z" stroke="#D3D3D7" stroke-width="1.98737" stroke-miterlimit="10" stroke-linejoin="round"/>
<path d="M436.546 285.739L499.247 282.201L526.176 341.167L446.185 345.281L436.546 285.739Z" stroke="#D3D3D7" stroke-width="1.98737" stroke-miterlimit="10" stroke-linejoin="round"/>
<path d="M429.08 248.575L433.79 275.643L497.267 273.894L498.261 247.224L429.08 248.575Z" stroke="#D3D3D7" stroke-width="1.98737" stroke-miterlimit="10" stroke-linejoin="round"/>
<path d="M530.412 350.686V377.317L455.23 380.02L448.453 356.092L530.412 350.686Z" stroke="#D3D3D7" stroke-width="1.98737" stroke-miterlimit="10" stroke-linejoin="round"/>
<path d="M485.896 386.658L532.182 421.457L529.817 386.658H485.896Z" stroke="#D3D3D7" stroke-width="1.98737" stroke-miterlimit="10" stroke-linejoin="round"/>
<path d="M455.528 391.527H475.124L513.162 423.524H462.603L455.528 391.527Z" stroke="#D3D3D7" stroke-width="1.98737" stroke-miterlimit="10" stroke-linejoin="round"/>
<path d="M471.742 433.977L522.738 430.599L547.064 444.451L552.668 466.272L476.75 474.082L471.742 433.977Z" stroke="#D3D3D7" stroke-width="1.98737" stroke-miterlimit="10" stroke-linejoin="round"/>
<path d="M617.382 240.129L624.477 372.607L720.984 337.629L617.382 240.129Z" stroke="#D3D3D7" stroke-width="1.98737" stroke-miterlimit="10" stroke-linejoin="round"/>
<path d="M644.188 239.612L683.716 175.857L773.069 234.028L796.361 211.531L819.056 238.062L746.12 336.238L644.188 239.612Z" stroke="#D3D3D7" stroke-width="1.98737" stroke-miterlimit="10" stroke-linejoin="round"/>
<path d="M629.585 381.849L717.824 348.481L718.818 361.398L669.193 442.384H648.445L648.246 419.191L632.129 418.595L629.585 381.849Z" stroke="#D3D3D7" stroke-width="1.98737" stroke-miterlimit="10" stroke-linejoin="round"/>
<path d="M727.061 360.623L677.734 447.114H755.56L727.061 360.623Z" stroke="#D3D3D7" stroke-width="1.98737" stroke-miterlimit="10" stroke-linejoin="round"/>
<path d="M539.85 386.658L542.652 428.532L608.394 421.457V384.452L539.85 386.658Z" stroke="#D3D3D7" stroke-width="1.98737" stroke-miterlimit="10" stroke-linejoin="round"/>
<path d="M558.614 435.905L641.567 428.532L648.642 525.535L563.921 535.413L558.614 435.905Z" stroke="#D3D3D7" stroke-width="1.98737" stroke-miterlimit="10" stroke-linejoin="round"/>
<path d="M481.359 485.43L552.666 477.183L558.609 550.298L648.637 538.513L651.399 583.706L494.138 601.612L481.359 485.43Z" stroke="#D3D3D7" stroke-width="1.98737" stroke-miterlimit="10" stroke-linejoin="round"/>
<path d="M651.399 456.335H755.558L767.164 488.67L730.596 492.505L742.978 575.359L660.422 581.361L651.399 456.335Z" stroke="#D3D3D7" stroke-width="1.98737" stroke-miterlimit="10" stroke-linejoin="round"/>
<path d="M115.864 226.694V238.559L217.28 272.563L224.613 249.43H212.431L115.864 226.694Z" stroke="#D3D3D7" stroke-width="1.98737" stroke-miterlimit="10" stroke-linejoin="round"/>
<path d="M239.78 267.455L337.897 266.68L334.797 249.43L244.113 249.529L239.78 267.455Z" stroke="#D3D3D7" stroke-width="1.98737" stroke-miterlimit="10" stroke-linejoin="round"/>
<path d="M341.868 249.43L345.346 266.064L425.457 265.945L422.098 248.436L341.868 249.43Z" stroke="#D3D3D7" stroke-width="1.98737" stroke-miterlimit="10" stroke-linejoin="round"/>
<path d="M109.384 244.839L84.999 335.364L119.699 480.422L109.384 244.839Z" stroke="#D3D3D7" stroke-width="1.98737" stroke-miterlimit="10" stroke-linejoin="round"/>
<path d="M138.863 254.279L126.779 302.036L160.386 298.796L188.11 314.715L221.418 305.871L222.193 285.103L138.863 254.279Z" stroke="#D3D3D7" stroke-width="1.98737" stroke-miterlimit="10" stroke-linejoin="round"/>
<path d="M123.442 310.303L158.023 307.64L223.785 340.57L239.942 485.609L133.856 502.243L123.442 310.303Z" stroke="#D3D3D7" stroke-width="1.98737" stroke-miterlimit="10" stroke-linejoin="round"/>
<path d="M232.327 338.007L341.712 318.253L344.335 478.335L246.318 484.953L232.327 338.007Z" stroke="#D3D3D7" stroke-width="1.98737" stroke-miterlimit="10" stroke-linejoin="round"/>
<path d="M230.853 284.984V322.983L308.976 313.741V294.384L247.368 292.616L230.853 284.984Z" stroke="#D3D3D7" stroke-width="1.98737" stroke-miterlimit="10" stroke-linejoin="round"/>
<path d="M316.079 298.22V311.476H337.582V299.392L316.079 298.22Z" stroke="#D3D3D7" stroke-width="1.98737" stroke-miterlimit="10" stroke-linejoin="round"/>
<path d="M191.642 319.922L221.412 314.039V332.323L191.642 319.922Z" stroke="#D3D3D7" stroke-width="1.98737" stroke-miterlimit="10" stroke-linejoin="round"/>
<path d="M351.251 294.583V308.932L406.44 293.47L351.251 294.583Z" stroke="#D3D3D7" stroke-width="1.98737" stroke-miterlimit="10" stroke-linejoin="round"/>
<path d="M353.021 313.741L382.296 306.766L393.504 352.356L353.995 353.747L353.021 313.741Z" stroke="#D3D3D7" stroke-width="1.98737" stroke-miterlimit="10" stroke-linejoin="round"/>
<path d="M392.132 306.765L405.884 304.003L410.217 348.043H401.174L392.132 306.765Z" stroke="#D3D3D7" stroke-width="1.98737" stroke-miterlimit="10" stroke-linejoin="round"/>
<path d="M353.021 360.623L395.869 359.053L398.413 383.617H354.592L353.021 360.623Z" stroke="#D3D3D7" stroke-width="1.98737" stroke-miterlimit="10" stroke-linejoin="round"/>
<path d="M403.918 360.027H415.723L422.202 383.617H403.143L403.918 360.027Z" stroke="#D3D3D7" stroke-width="1.98737" stroke-miterlimit="10" stroke-linejoin="round"/>
<path d="M358.323 393.256H396.063L398.409 427.836H359.098L358.323 393.256Z" stroke="#D3D3D7" stroke-width="1.98737" stroke-miterlimit="10" stroke-linejoin="round"/>
<path d="M405.508 393.256H424.567L422.202 411.917L428.879 424.497L405.508 426.465V393.256Z" stroke="#D3D3D7" stroke-width="1.98737" stroke-miterlimit="10" stroke-linejoin="round"/>
<path d="M359.699 440.615L400.003 432.765V461.065L361.468 463.808L359.699 440.615Z" stroke="#D3D3D7" stroke-width="1.98737" stroke-miterlimit="10" stroke-linejoin="round"/>
<path d="M363.229 468.915L405.501 466.57V477.183L363.229 478.157V468.915Z" stroke="#D3D3D7" stroke-width="1.98737" stroke-miterlimit="10" stroke-linejoin="round"/>
<path d="M409.817 433.739L431.837 432.765V440.615L440.284 456.534L409.817 459.495V433.739Z" stroke="#D3D3D7" stroke-width="1.98737" stroke-miterlimit="10" stroke-linejoin="round"/>
<path d="M409.817 466.57L439.509 463.033L446.961 475.215L409.817 476.01V466.57Z" stroke="#D3D3D7" stroke-width="1.98737" stroke-miterlimit="10" stroke-linejoin="round"/>
<path d="M-169.386 371.335H-117.754L-72.0045 198.255L36.5459 210.06L111.331 216.241L213.68 238.559H552.667L582.835 223.018L638.124 73.5472L681.707 -22.4827L727.416 -107.344L761.897 -162.553" stroke="#D3D3D7" stroke-width="9.93686" stroke-miterlimit="10"/>
<path d="M231.273 -162.553L179.064 -126.204L209.133 -116.823L258.659 -66.1056L282.249 -59.9844L395.37 60.5895L532.817 175.857L578.526 210.954L606.568 218.009L749.123 353.747L824.305 406.492L847.06 409.85L849.485 488.67L840.88 501.448L844.179 562.977" stroke="#D3D3D7" stroke-width="9.93686" stroke-miterlimit="10"/>
<path d="M-176.916 614.57H-83.6486L137.089 515.36L254.443 495.268L465.92 481.972L422.198 315.908V275.703H226.421L237.491 238.559" stroke="#D3D3D7" stroke-width="9.93686" stroke-miterlimit="10"/>
<path d="M137.092 515.36L141.524 726.916L139.298 891.132L131.687 910.589V947.355" stroke="#D3D3D7" stroke-width="9.93686" stroke-miterlimit="10"/>
</g>
<path d="M582.897 397.089C581.846 392.465 577.813 390.384 574.271 390.384C574.271 390.384 574.271 390.384 574.261 390.384C570.728 390.384 566.685 392.455 565.634 397.079C564.463 402.243 567.625 406.616 570.488 409.368C571.548 410.389 572.909 410.899 574.271 410.899C575.632 410.899 576.993 410.389 578.043 409.368C580.906 406.616 584.068 402.253 582.897 397.089ZM574.271 402.103C572.529 402.103 571.118 400.692 571.118 398.95C571.118 397.209 572.529 395.798 574.271 395.798C576.012 395.798 577.423 397.209 577.423 398.95C577.423 400.692 576.012 402.103 574.271 402.103Z" fill="#CCFF00"/>
<path d="M672.921 316.148C671.87 311.525 667.837 309.443 664.294 309.443C664.294 309.443 664.294 309.443 664.284 309.443C660.751 309.443 656.708 311.515 655.657 316.138C654.487 321.302 657.649 325.675 660.511 328.427C661.572 329.448 662.933 329.959 664.294 329.959C665.655 329.959 667.016 329.448 668.067 328.427C670.929 325.675 674.091 321.312 672.921 316.148ZM664.294 321.162C662.553 321.162 661.142 319.751 661.142 318.01C661.142 316.268 662.553 314.857 664.294 314.857C666.035 314.857 667.446 316.268 667.446 318.01C667.446 319.751 666.035 321.162 664.294 321.162Z" fill="#CCFF00"/>
<path d="M700.124 518.982C699.073 514.358 695.04 512.276 691.497 512.276C691.497 512.276 691.497 512.276 691.487 512.276C687.954 512.276 683.911 514.348 682.861 518.972C681.69 524.136 684.852 528.509 687.714 531.261C688.775 532.282 690.136 532.792 691.497 532.792C692.858 532.792 694.219 532.282 695.27 531.261C698.132 528.509 701.295 524.146 700.124 518.982ZM691.497 523.995C689.756 523.995 688.345 522.584 688.345 520.843C688.345 519.102 689.756 517.691 691.497 517.691C693.238 517.691 694.649 519.102 694.649 520.843C694.649 522.584 693.238 523.995 691.497 523.995Z" fill="#CCFF00"/>
<path d="M616.061 460.732C615.01 456.108 610.977 454.027 607.435 454.027C607.435 454.027 607.435 454.027 607.425 454.027C603.892 454.027 599.849 456.098 598.798 460.722C597.627 465.886 600.79 470.259 603.652 473.011C604.713 474.032 606.074 474.542 607.435 474.542C608.796 474.542 610.157 474.032 611.207 473.011C614.07 470.259 617.232 465.896 616.061 460.732ZM607.435 465.746C605.693 465.746 604.282 464.335 604.282 462.593C604.282 460.852 605.693 459.441 607.435 459.441C609.176 459.441 610.587 460.852 610.587 462.593C610.587 464.335 609.176 465.746 607.435 465.746Z" fill="#CCFF00"/>
<path d="M532.249 529.239C531.198 524.616 527.165 522.534 523.622 522.534C523.622 522.534 523.622 522.534 523.612 522.534C520.079 522.534 516.036 524.606 514.986 529.229C513.815 534.393 516.977 538.766 519.839 541.518C520.9 542.539 522.261 543.05 523.622 543.05C524.983 543.05 526.344 542.539 527.395 541.518C530.257 538.766 533.42 534.403 532.249 529.239ZM523.622 534.253C521.881 534.253 520.47 532.842 520.47 531.101C520.47 529.359 521.881 527.948 523.622 527.948C525.363 527.948 526.774 529.359 526.774 531.101C526.774 532.842 525.363 534.253 523.622 534.253Z" fill="#CCFF00"/>
<path d="M541.135 624.66C540.085 620.037 536.051 617.955 532.509 617.955C532.509 617.955 532.509 617.955 532.499 617.955C528.966 617.955 524.923 620.027 523.872 624.65C522.701 629.814 525.864 634.188 528.726 636.94C529.787 637.96 531.148 638.471 532.509 638.471C533.87 638.471 535.231 637.96 536.282 636.94C539.144 634.188 542.306 629.824 541.135 624.66ZM532.509 629.674C530.767 629.674 529.356 628.263 529.356 626.522C529.356 624.78 530.767 623.369 532.509 623.369C534.25 623.369 535.661 624.78 535.661 626.522C535.661 628.263 534.25 629.674 532.509 629.674Z" fill="#CCFF00"/>
<path d="M579.077 768.267C578.026 763.643 573.993 761.562 570.45 761.562C570.45 761.562 570.45 761.562 570.44 761.562C566.908 761.562 562.864 763.633 561.814 768.257C560.643 773.421 563.805 777.794 566.667 780.546C567.728 781.567 569.089 782.077 570.45 782.077C571.811 782.077 573.172 781.567 574.223 780.546C577.085 777.794 580.248 773.431 579.077 768.267ZM570.45 773.281C568.709 773.281 567.298 771.869 567.298 770.128C567.298 768.387 568.709 766.976 570.45 766.976C572.192 766.976 573.603 768.387 573.603 770.128C573.603 771.869 572.192 773.281 570.45 773.281Z" fill="#CCFF00"/>
<path d="M409.635 678.703C408.585 674.079 404.551 671.998 401.009 671.998C401.009 671.998 401.009 671.998 400.999 671.998C397.466 671.998 393.423 674.069 392.372 678.693C391.201 683.857 394.364 688.23 397.226 690.982C398.287 692.003 399.648 692.513 401.009 692.513C402.37 692.513 403.731 692.003 404.782 690.982C407.644 688.23 410.806 683.867 409.635 678.703ZM401.009 683.717C399.267 683.717 397.856 682.306 397.856 680.564C397.856 678.823 399.267 677.412 401.009 677.412C402.75 677.412 404.161 678.823 404.161 680.564C404.161 682.306 402.75 683.717 401.009 683.717Z" fill="#CCFF00"/>
<path d="M261.319 552.007C260.268 547.383 256.235 545.302 252.692 545.302C252.692 545.302 252.692 545.302 252.682 545.302C249.15 545.302 245.107 547.373 244.056 551.997C242.885 557.161 246.047 561.534 248.91 564.286C249.97 565.307 251.331 565.817 252.692 565.817C254.053 565.817 255.414 565.307 256.465 564.286C259.327 561.534 262.49 557.171 261.319 552.007ZM252.692 557.021C250.951 557.021 249.54 555.609 249.54 553.868C249.54 552.127 250.951 550.716 252.692 550.716C254.434 550.716 255.845 552.127 255.845 553.868C255.845 555.609 254.434 557.021 252.692 557.021Z" fill="#CCFF00"/>
<path d="M201.268 428.313C200.217 423.689 196.184 421.608 192.642 421.608C192.642 421.608 192.642 421.608 192.632 421.608C189.099 421.608 185.056 423.679 184.005 428.303C182.834 433.467 185.997 437.84 188.859 440.592C189.92 441.613 191.281 442.123 192.642 442.123C194.003 442.123 195.364 441.613 196.414 440.592C199.277 437.84 202.439 433.477 201.268 428.313ZM192.642 433.326C190.9 433.326 189.489 431.915 189.489 430.174C189.489 428.433 190.9 427.022 192.642 427.022C194.383 427.022 195.794 428.433 195.794 430.174C195.794 431.915 194.383 433.326 192.642 433.326Z" fill="#CCFF00"/>
<path d="M55.3541 377.324C54.3033 372.7 50.2702 370.619 46.7276 370.619C46.7276 370.619 46.7276 370.619 46.7175 370.619C43.1849 370.619 39.1418 372.69 38.091 377.314C36.9201 382.478 40.0825 386.851 42.9447 389.603C44.0055 390.624 45.3665 391.134 46.7276 391.134C48.0886 391.134 49.4496 390.624 50.5004 389.603C53.3626 386.851 56.525 382.488 55.3541 377.324ZM46.7276 382.338C44.9862 382.338 43.5752 380.927 43.5752 379.185C43.5752 377.444 44.9862 376.033 46.7276 376.033C48.4689 376.033 49.88 377.444 49.88 379.185C49.88 380.927 48.4689 382.338 46.7276 382.338Z" fill="#CCFF00"/>
<path d="M55.3619 245.774C54.3111 241.15 50.2781 239.069 46.7354 239.069C46.7354 239.069 46.7354 239.069 46.7254 239.069C43.1927 239.069 39.1496 241.14 38.0988 245.764C36.9279 250.928 40.0903 255.301 42.9525 258.053C44.0133 259.074 45.3743 259.584 46.7354 259.584C48.0964 259.584 49.4574 259.074 50.5082 258.053C53.3704 255.301 56.5328 250.938 55.3619 245.774ZM46.7354 250.788C44.994 250.788 43.583 249.377 43.583 247.635C43.583 245.894 44.994 244.483 46.7354 244.483C48.4767 244.483 49.8878 245.894 49.8878 247.635C49.8878 249.377 48.4767 250.788 46.7354 250.788Z" fill="#CCFF00"/>
<path d="M31.3424 488.358C30.2916 483.735 26.2585 481.653 22.7158 481.653C22.7158 481.653 22.7158 481.653 22.7058 481.653C19.1731 481.653 15.1301 483.725 14.0793 488.348C12.9084 493.512 16.0708 497.886 18.933 500.638C19.9938 501.658 21.3548 502.169 22.7158 502.169C24.0769 502.169 25.4379 501.658 26.4887 500.638C29.3509 497.886 32.5133 493.522 31.3424 488.358ZM22.7158 493.372C20.9745 493.372 19.5634 491.961 19.5634 490.22C19.5634 488.478 20.9745 487.067 22.7158 487.067C24.4572 487.067 25.8682 488.478 25.8682 490.22C25.8682 491.961 24.4572 493.372 22.7158 493.372Z" fill="#CCFF00"/>
<path d="M34.4674 593.438C33.4166 588.815 29.3835 586.733 25.8408 586.733C25.8408 586.733 25.8408 586.733 25.8308 586.733C22.2981 586.733 18.2551 588.805 17.2043 593.428C16.0334 598.592 19.1958 602.965 22.058 605.717C23.1188 606.738 24.4798 607.249 25.8408 607.249C27.2019 607.249 28.5629 606.738 29.6137 605.717C32.4759 602.965 35.6383 598.602 34.4674 593.438ZM25.8408 598.452C24.0995 598.452 22.6884 597.041 22.6884 595.3C22.6884 593.558 24.0995 592.147 25.8408 592.147C27.5822 592.147 28.9932 593.558 28.9932 595.3C28.9932 597.041 27.5822 598.452 25.8408 598.452Z" fill="#CCFF00"/>
<path d="M80.233 126.233C79.1822 121.609 75.1492 119.528 71.6065 119.528C71.6065 119.528 71.6065 119.528 71.5965 119.528C68.0638 119.528 64.0207 121.599 62.9699 126.223C61.799 131.387 64.9614 135.76 67.8236 138.512C68.8844 139.533 70.2454 140.043 71.6065 140.043C72.9675 140.043 74.3285 139.533 75.3793 138.512C78.2415 135.76 81.4039 131.397 80.233 126.233ZM71.6065 131.247C69.8651 131.247 68.4541 129.836 68.4541 128.094C68.4541 126.353 69.8651 124.942 71.6065 124.942C73.3478 124.942 74.7589 126.353 74.7589 128.094C74.7589 129.836 73.3478 131.247 71.6065 131.247Z" fill="#CCFF00"/>
<path d="M89.1197 41.2685C88.0689 36.6449 84.0359 34.5634 80.4932 34.5634C80.4932 34.5634 80.4932 34.5634 80.4832 34.5634C76.9505 34.5634 72.9074 36.6349 71.8566 41.2584C70.6857 46.4224 73.8481 50.7957 76.7103 53.5478C77.7711 54.5686 79.1321 55.079 80.4932 55.079C81.8542 55.079 83.2152 54.5686 84.266 53.5478C87.1282 50.7957 90.2906 46.4324 89.1197 41.2685ZM80.4932 46.2823C78.7519 46.2823 77.3408 44.8712 77.3408 43.1299C77.3408 41.3885 78.7519 39.9775 80.4932 39.9775C82.2345 39.9775 83.6456 41.3885 83.6456 43.1299C83.6456 44.8712 82.2345 46.2823 80.4932 46.2823Z" fill="#CCFF00"/>
<path d="M198.139 134.739C197.088 130.116 193.055 128.034 189.513 128.034C189.513 128.034 189.513 128.034 189.503 128.034C185.97 128.034 181.927 130.106 180.876 134.729C179.705 139.893 182.868 144.267 185.73 147.019C186.791 148.04 188.152 148.55 189.513 148.55C190.874 148.55 192.235 148.04 193.286 147.019C196.148 144.267 199.31 139.903 198.139 134.739ZM189.513 139.753C187.771 139.753 186.36 138.342 186.36 136.601C186.36 134.859 187.771 133.448 189.513 133.448C191.254 133.448 192.665 134.859 192.665 136.601C192.665 138.342 191.254 139.753 189.513 139.753Z" fill="#CCFF00"/>
<path d="M258.186 87.5534C257.135 82.9298 253.102 80.8483 249.56 80.8483C249.56 80.8483 249.56 80.8483 249.55 80.8483C246.017 80.8483 241.974 82.9198 240.923 87.5434C239.752 92.7073 242.915 97.0806 245.777 99.8327C246.838 100.853 248.199 101.364 249.56 101.364C250.921 101.364 252.282 100.853 253.332 99.8327C256.195 97.0806 259.357 92.7173 258.186 87.5534ZM249.56 92.5672C247.818 92.5672 246.407 91.1561 246.407 89.4148C246.407 87.6735 247.818 86.2624 249.56 86.2624C251.301 86.2624 252.712 87.6735 252.712 89.4148C252.712 91.1561 251.301 92.5672 249.56 92.5672Z" fill="#CCFF00"/>
<path d="M258.19 19.0014C257.139 14.3778 253.106 12.2963 249.563 12.2963C249.563 12.2963 249.563 12.2963 249.553 12.2963C246.021 12.2963 241.978 14.3678 240.927 18.9914C239.756 24.1553 242.918 28.5286 245.781 31.2807C246.841 32.3015 248.202 32.8119 249.563 32.8119C250.925 32.8119 252.286 32.3015 253.336 31.2807C256.199 28.5286 259.361 24.1653 258.19 19.0014ZM249.563 24.0152C247.822 24.0152 246.411 22.6041 246.411 20.8628C246.411 19.1215 247.822 17.7104 249.563 17.7104C251.305 17.7104 252.716 19.1215 252.716 20.8628C252.716 22.6041 251.305 24.0152 249.563 24.0152Z" fill="#CCFF00"/>
<path d="M363.557 154.529C362.506 149.906 358.473 147.824 354.931 147.824C354.931 147.824 354.931 147.824 354.921 147.824C351.388 147.824 347.345 149.896 346.294 154.519C345.123 159.683 348.286 164.057 351.148 166.809C352.209 167.829 353.57 168.34 354.931 168.34C356.292 168.34 357.653 167.829 358.704 166.809C361.566 164.057 364.728 159.693 363.557 154.529ZM354.931 159.543C353.189 159.543 351.778 158.132 351.778 156.391C351.778 154.649 353.189 153.238 354.931 153.238C356.672 153.238 358.083 154.649 358.083 156.391C358.083 158.132 356.672 159.543 354.931 159.543Z" fill="#CCFF00"/>
<path d="M562.018 39.517C560.967 34.8935 556.934 32.8119 553.392 32.8119C553.392 32.8119 553.392 32.8119 553.382 32.8119C549.849 32.8119 545.806 34.8835 544.755 39.507C543.584 44.6709 546.747 49.0442 549.609 51.7963C550.67 52.8171 552.031 53.3275 553.392 53.3275C554.753 53.3275 556.114 52.8171 557.164 51.7963C560.027 49.0442 563.189 44.6809 562.018 39.517ZM553.392 44.5308C551.65 44.5308 550.239 43.1197 550.239 41.3784C550.239 39.6371 551.65 38.226 553.392 38.226C555.133 38.226 556.544 39.6371 556.544 41.3784C556.544 43.1197 555.133 44.5308 553.392 44.5308Z" fill="#CCFF00"/>
<path d="M595.174 247.525C594.124 242.902 590.091 240.82 586.548 240.82C586.548 240.82 586.548 240.82 586.538 240.82C583.005 240.82 578.962 242.892 577.911 247.515C576.74 252.679 579.903 257.053 582.765 259.805C583.826 260.825 585.187 261.336 586.548 261.336C587.909 261.336 589.27 260.825 590.321 259.805C593.183 257.053 596.345 252.689 595.174 247.525ZM586.548 252.539C584.807 252.539 583.395 251.128 583.395 249.387C583.395 247.645 584.807 246.234 586.548 246.234C588.289 246.234 589.7 247.645 589.7 249.387C589.7 251.128 588.289 252.539 586.548 252.539Z" fill="#CCFF00"/>
<path d="M691.249 678.703C690.198 674.079 686.165 671.998 682.622 671.998C682.622 671.998 682.622 671.998 682.612 671.998C679.079 671.998 675.036 674.069 673.986 678.693C672.815 683.857 675.977 688.23 678.839 690.982C679.9 692.003 681.261 692.513 682.622 692.513C683.983 692.513 685.344 692.003 686.395 690.982C689.257 688.23 692.42 683.867 691.249 678.703ZM682.622 683.717C680.881 683.717 679.47 682.306 679.47 680.564C679.47 678.823 680.881 677.412 682.622 677.412C684.363 677.412 685.774 678.823 685.774 680.564C685.774 682.306 684.363 683.717 682.622 683.717Z" fill="#CCFF00"/>
<path d="M406.503 517.23C405.452 512.607 401.419 510.525 397.876 510.525C397.876 510.525 397.876 510.525 397.866 510.525C394.333 510.525 390.29 512.597 389.239 517.22C388.069 522.384 391.231 526.757 394.093 529.509C395.154 530.53 396.515 531.041 397.876 531.041C399.237 531.041 400.598 530.53 401.649 529.509C404.511 526.757 407.673 522.394 406.503 517.23ZM397.876 522.244C396.135 522.244 394.724 520.833 394.724 519.092C394.724 517.35 396.135 515.939 397.876 515.939C399.617 515.939 401.028 517.35 401.028 519.092C401.028 520.833 399.617 522.244 397.876 522.244Z" fill="#CCFF00"/>
<path d="M384.452 365.315C383.401 360.691 379.368 358.61 375.825 358.61C375.825 358.61 375.825 358.61 375.815 358.61C372.283 358.61 368.239 360.681 367.189 365.305C366.018 370.469 369.18 374.842 372.042 377.594C373.103 378.615 374.464 379.125 375.825 379.125C377.186 379.125 378.547 378.615 379.598 377.594C382.46 374.842 385.623 370.479 384.452 365.315ZM375.825 370.329C374.084 370.329 372.673 368.918 372.673 367.176C372.673 365.435 374.084 364.024 375.825 364.024C377.567 364.024 378.978 365.435 378.978 367.176C378.978 368.918 377.567 370.329 375.825 370.329Z" fill="#CCFF00"/>
<path d="M324.077 388.582C323.026 383.959 318.993 381.877 315.45 381.877C315.45 381.877 315.45 381.877 315.44 381.877C311.908 381.877 307.864 383.949 306.814 388.572C305.643 393.736 308.805 398.109 311.667 400.862C312.728 401.882 314.089 402.393 315.45 402.393C316.811 402.393 318.172 401.882 319.223 400.862C322.085 398.109 325.248 393.746 324.077 388.582ZM315.45 393.596C313.709 393.596 312.298 392.185 312.298 390.444C312.298 388.702 313.709 387.291 315.45 387.291C317.192 387.291 318.603 388.702 318.603 390.444C318.603 392.185 317.192 393.596 315.45 393.596Z" fill="#CCFF00"/>
<path d="M485.049 311.274C483.999 306.65 479.966 304.568 476.423 304.568C476.423 304.568 476.423 304.568 476.413 304.568C472.88 304.568 468.837 306.64 467.786 311.264C466.615 316.427 469.778 320.801 472.64 323.553C473.701 324.574 475.062 325.084 476.423 325.084C477.784 325.084 479.145 324.574 480.196 323.553C483.058 320.801 486.22 316.438 485.049 311.274ZM476.423 316.287C474.682 316.287 473.27 314.876 473.27 313.135C473.27 311.394 474.682 309.983 476.423 309.983C478.164 309.983 479.575 311.394 479.575 313.135C479.575 314.876 478.164 316.287 476.423 316.287Z" fill="#CCFF00"/>
<path d="M471.471 256.032C470.421 251.408 466.387 249.327 462.845 249.327C462.845 249.327 462.845 249.327 462.835 249.327C459.302 249.327 455.259 251.398 454.208 256.022C453.037 261.186 456.2 265.559 459.062 268.311C460.123 269.332 461.484 269.842 462.845 269.842C464.206 269.842 465.567 269.332 466.618 268.311C469.48 265.559 472.642 261.196 471.471 256.032ZM462.845 261.046C461.103 261.046 459.692 259.635 459.692 257.893C459.692 256.152 461.103 254.741 462.845 254.741C464.586 254.741 465.997 256.152 465.997 257.893C465.997 259.635 464.586 261.046 462.845 261.046Z" fill="#CCFF00"/>
<path d="M562.018 128.385C560.967 123.761 556.934 121.68 553.392 121.68C553.392 121.68 553.392 121.68 553.382 121.68C549.849 121.68 545.806 123.751 544.755 128.375C543.584 133.539 546.747 137.912 549.609 140.664C550.67 141.685 552.031 142.195 553.392 142.195C554.753 142.195 556.114 141.685 557.164 140.664C560.027 137.912 563.189 133.549 562.018 128.385ZM553.392 133.398C551.65 133.398 550.239 131.987 550.239 130.246C550.239 128.505 551.65 127.094 553.392 127.094C555.133 127.094 556.544 128.505 556.544 130.246C556.544 131.987 555.133 133.398 553.392 133.398Z" fill="#CCFF00"/>
<path d="M171.491 -7.6688C170.44 -12.2923 166.407 -14.3739 162.864 -14.3739C162.864 -14.3739 162.864 -14.3739 162.854 -14.3739C159.322 -14.3739 155.279 -12.3023 154.228 -7.67881C153.057 -2.51489 156.219 1.85844 159.081 4.61053C160.142 5.63131 161.503 6.1417 162.864 6.1417C164.225 6.1417 165.586 5.63131 166.637 4.61053C169.499 1.85844 172.662 -2.50488 171.491 -7.6688ZM162.864 -2.65499C161.123 -2.65499 159.712 -4.06606 159.712 -5.80739C159.712 -7.54871 161.123 -8.95979 162.864 -8.95979C164.606 -8.95979 166.017 -7.54871 166.017 -5.80739C166.017 -4.06606 164.606 -2.65499 162.864 -2.65499Z" fill="#CCFF00"/>
<path d="M447.456 730.292C446.405 725.669 442.372 723.587 438.829 723.587C438.829 723.587 438.829 723.587 438.819 723.587C435.286 723.587 431.243 725.659 430.193 730.282C429.022 735.446 432.184 739.819 435.046 742.571C436.107 743.592 437.468 744.103 438.829 744.103C440.19 744.103 441.551 743.592 442.602 742.571C445.464 739.819 448.627 735.456 447.456 730.292ZM438.829 735.306C437.088 735.306 435.677 733.895 435.677 732.154C435.677 730.412 437.088 729.001 438.829 729.001C440.57 729.001 441.982 730.412 441.982 732.154C441.982 733.895 440.57 735.306 438.829 735.306Z" fill="#CCFF00"/>
<path d="M691.241 833.671C690.19 829.047 686.157 826.965 682.614 826.965C682.614 826.965 682.614 826.965 682.604 826.965C679.072 826.965 675.029 829.037 673.978 833.661C672.807 838.824 675.969 843.198 678.831 845.95C679.892 846.971 681.253 847.481 682.614 847.481C683.975 847.481 685.336 846.971 686.387 845.95C689.249 843.198 692.412 838.834 691.241 833.671ZM682.614 838.684C680.873 838.684 679.462 837.273 679.462 835.532C679.462 833.791 680.873 832.38 682.614 832.38C684.356 832.38 685.767 833.791 685.767 835.532C685.767 837.273 684.356 838.684 682.614 838.684Z" fill="#CCFF00"/>
<path d="M587.956 837.173C586.905 832.55 582.872 830.468 579.329 830.468C579.329 830.468 579.329 830.468 579.319 830.468C575.786 830.468 571.743 832.54 570.693 837.163C569.522 842.327 572.684 846.701 575.546 849.453C576.607 850.474 577.968 850.984 579.329 850.984C580.69 850.984 582.051 850.474 583.102 849.453C585.964 846.701 589.127 842.337 587.956 837.173ZM579.329 842.187C577.588 842.187 576.177 840.776 576.177 839.035C576.177 837.294 577.588 835.882 579.329 835.882C581.07 835.882 582.482 837.294 582.482 839.035C582.482 840.776 581.07 842.187 579.329 842.187Z" fill="#CCFF00"/>
<path d="M493.932 857.689C492.881 853.065 488.848 850.984 485.306 850.984C485.306 850.984 485.306 850.984 485.296 850.984C481.763 850.984 477.72 853.055 476.669 857.679C475.498 862.843 478.661 867.216 481.523 869.968C482.584 870.989 483.945 871.499 485.306 871.499C486.667 871.499 488.028 870.989 489.079 869.968C491.941 867.216 495.103 862.853 493.932 857.689ZM485.306 862.703C483.564 862.703 482.153 861.292 482.153 859.55C482.153 857.809 483.564 856.398 485.306 856.398C487.047 856.398 488.458 857.809 488.458 859.55C488.458 861.292 487.047 862.703 485.306 862.703Z" fill="#CCFF00"/>
<path d="M276.452 867.947C275.401 863.323 271.368 861.242 267.825 861.242C267.825 861.242 267.825 861.242 267.815 861.242C264.283 861.242 260.239 863.313 259.189 867.937C258.018 873.101 261.18 877.474 264.042 880.226C265.103 881.247 266.464 881.757 267.825 881.757C269.186 881.757 270.547 881.247 271.598 880.226C274.46 877.474 277.623 873.111 276.452 867.947ZM267.825 872.961C266.084 872.961 264.673 871.55 264.673 869.808C264.673 868.067 266.084 866.656 267.825 866.656C269.567 866.656 270.978 868.067 270.978 869.808C270.978 871.55 269.567 872.961 267.825 872.961Z" fill="#CCFF00"/>
<path d="M382.483 321.531C381.432 316.908 377.399 314.826 373.856 314.826C373.856 314.826 373.856 314.826 373.846 314.826C370.314 314.826 366.271 316.898 365.22 321.521C364.049 326.685 367.211 331.059 370.074 333.811C371.134 334.832 372.495 335.342 373.856 335.342C375.217 335.342 376.579 334.832 377.629 333.811C380.492 331.059 383.654 326.695 382.483 321.531ZM373.856 326.545C372.115 326.545 370.704 325.134 370.704 323.393C370.704 321.651 372.115 320.24 373.856 320.24C375.598 320.24 377.009 321.651 377.009 323.393C377.009 325.134 375.598 326.545 373.856 326.545Z" fill="#CCFF00"/>
<path d="M37.5885 676.952C36.5377 672.328 32.5046 670.246 28.9619 670.246C28.9619 670.246 28.9619 670.246 28.9519 670.246C25.4192 670.246 21.3762 672.318 20.3254 676.942C19.1545 682.105 22.3169 686.479 25.1791 689.231C26.2399 690.252 27.6009 690.762 28.9619 690.762C30.323 690.762 31.684 690.252 32.7348 689.231C35.597 686.479 38.7594 682.115 37.5885 676.952ZM28.9619 681.965C27.2206 681.965 25.8095 680.554 25.8095 678.813C25.8095 677.072 27.2206 675.661 28.9619 675.661C30.7033 675.661 32.1143 677.072 32.1143 678.813C32.1143 680.554 30.7033 681.965 28.9619 681.965Z" fill="#CCFF00"/>
<path d="M113.139 626.412C112.088 621.788 108.055 619.707 104.513 619.707C104.513 619.707 104.513 619.707 104.503 619.707C100.97 619.707 96.9269 621.778 95.8761 626.402C94.7053 631.566 97.8677 635.939 100.73 638.691C101.791 639.712 103.152 640.222 104.513 640.222C105.874 640.222 107.235 639.712 108.286 638.691C111.148 635.939 114.31 631.576 113.139 626.412ZM104.513 631.426C102.771 631.426 101.36 630.015 101.36 628.273C101.36 626.532 102.771 625.121 104.513 625.121C106.254 625.121 107.665 626.532 107.665 628.273C107.665 630.015 106.254 631.426 104.513 631.426Z" fill="#CCFF00"/>
<path d="M192.385 281.872C191.335 277.249 187.301 275.167 183.759 275.167C183.759 275.167 183.759 275.167 183.749 275.167C180.216 275.167 176.173 277.239 175.122 281.862C173.951 287.026 177.114 291.399 179.976 294.152C181.037 295.172 182.398 295.683 183.759 295.683C185.12 295.683 186.481 295.172 187.532 294.152C190.394 291.399 193.556 287.036 192.385 281.872ZM183.759 286.886C182.017 286.886 180.606 285.475 180.606 283.734C180.606 281.992 182.017 280.581 183.759 280.581C185.5 280.581 186.911 281.992 186.911 283.734C186.911 285.475 185.5 286.886 183.759 286.886Z" fill="#CCFF00"/>
<path d="M285.338 292.13C284.288 287.507 280.255 285.425 276.712 285.425C276.712 285.425 276.712 285.425 276.702 285.425C273.169 285.425 269.126 287.497 268.075 292.12C266.904 297.284 270.067 301.657 272.929 304.409C273.99 305.43 275.351 305.941 276.712 305.941C278.073 305.941 279.434 305.43 280.485 304.409C283.347 301.657 286.509 297.294 285.338 292.13ZM276.712 297.144C274.971 297.144 273.56 295.733 273.56 293.991C273.56 292.25 274.971 290.839 276.712 290.839C278.453 290.839 279.864 292.25 279.864 293.991C279.864 295.733 278.453 297.144 276.712 297.144Z" fill="#CCFF00"/>
<path d="M480.354 65.2868C479.303 60.6632 475.27 58.5817 471.728 58.5817C471.728 58.5817 471.728 58.5817 471.718 58.5817C468.185 58.5817 464.142 60.6532 463.091 65.2768C461.92 70.4407 465.083 74.814 467.945 77.5661C469.005 78.5869 470.367 79.0973 471.728 79.0973C473.089 79.0973 474.45 78.5869 475.5 77.5661C478.363 74.814 481.525 70.4507 480.354 65.2868ZM471.728 70.3006C469.986 70.3006 468.575 68.8895 468.575 67.1482C468.575 65.4069 469.986 63.9958 471.728 63.9958C473.469 63.9958 474.88 65.4069 474.88 67.1482C474.88 68.8895 473.469 70.3006 471.728 70.3006Z" fill="#CCFF00"/>
<path d="M270.198 758.009C269.147 753.386 265.114 751.304 261.571 751.304C261.571 751.304 261.571 751.304 261.561 751.304C258.029 751.304 253.986 753.376 252.935 757.999C251.764 763.163 254.926 767.536 257.788 770.289C258.849 771.309 260.21 771.82 261.571 771.82C262.932 771.82 264.293 771.309 265.344 770.289C268.206 767.536 271.369 763.173 270.198 758.009ZM261.571 763.023C259.83 763.023 258.419 761.612 258.419 759.871C258.419 758.129 259.83 756.718 261.571 756.718C263.313 756.718 264.724 758.129 264.724 759.871C264.724 761.612 263.313 763.023 261.571 763.023Z" fill="#CCFF00"/>
</g>
</g>
<defs>
<clipPath id="clip0_631_31543">
<rect width="702" height="885" fill="white" transform="translate(0 0.635254)"/>
</clipPath>
<clipPath id="clip1_631_31543">
<rect width="993.687" height="993.687" fill="white" transform="translate(-169.387 -94.7632)"/>
</clipPath>
</defs>
</svg>
